<svg width="72" height="73" viewBox="0 0 72 73" fill="none" xmlns="http://www.w3.org/2000/svg">
<g clip-path="url(#clip0_928_2744)">
<path d="M60.9908 13.4334C56.3302 11.2528 51.3467 9.66802 46.1367 8.76562C45.4968 9.92246 44.7493 11.4784 44.2339 12.7162C38.6955 11.8833 33.208 11.8833 27.7715 12.7162C27.2562 11.4784 26.4917 9.92246 25.8461 8.76562C20.6304 9.66802 15.6413 11.2586 10.9806 13.445C1.57993 27.6506 -0.968433 41.5033 0.30575 55.1594C6.54076 59.8156 12.5832 62.644 18.5237 64.4949C19.9905 62.4762 21.2986 60.3304 22.4255 58.0688C20.2793 57.2533 18.2236 56.2469 16.2812 55.0785C16.7965 54.6967 17.3006 54.2976 17.7875 53.8869C29.6346 59.4281 42.5067 59.4281 54.2122 53.8869C54.7049 54.2976 55.2089 54.6967 55.7185 55.0785C53.7704 56.2526 51.7091 57.259 49.5629 58.0746C50.6898 60.3304 51.9923 62.4821 53.4647 64.5006C59.4109 62.6498 65.459 59.8214 71.694 55.1594C73.189 39.3286 69.14 25.603 60.9908 13.4334ZM24.0395 46.7611C20.4832 46.7611 17.5667 43.441 17.5667 39.3979C17.5667 35.3549 20.4209 32.0291 24.0395 32.0291C27.6583 32.0291 30.5747 35.3491 30.5124 39.3979C30.518 43.441 27.6583 46.7611 24.0395 46.7611ZM47.9602 46.7611C44.4039 46.7611 41.4874 43.441 41.4874 39.3979C41.4874 35.3549 44.3415 32.0291 47.9602 32.0291C51.5789 32.0291 54.4954 35.3491 54.4331 39.3979C54.4331 43.441 51.5789 46.7611 47.9602 46.7611Z" fill="white"/>
</g>
<defs>
<clipPath id="clip0_928_2744">
<rect width="72" height="72" fill="white" transform="translate(0 0.75)"/>
</clipPath>
</defs>
</svg>
