<svg width="33" height="24" viewBox="0 0 33 24" fill="none" xmlns="http://www.w3.org/2000/svg">
<path fill-rule="evenodd" clip-rule="evenodd" d="M16.4974 0.679688C14.7605 0.679688 12.7349 0.720521 10.7603 0.775937L10.6801 0.778854C8.67052 0.835729 7.04885 0.880937 5.77135 1.0924C4.4399 1.3126 3.33448 1.73406 2.45073 2.6426C1.56406 3.55406 1.1776 4.68135 0.995312 6.03031C0.820313 7.32823 0.820312 8.97323 0.820312 11.0178V13.2403C0.820312 15.282 0.820313 16.927 0.995312 18.2264C1.17615 19.5753 1.56406 20.7026 2.45073 21.6141C3.33448 22.5241 4.4399 22.9441 5.77135 23.1643C7.04885 23.3757 8.67052 23.4209 10.6801 23.4778L10.7603 23.4807C12.7364 23.5361 14.7605 23.577 16.4974 23.577C18.2343 23.577 20.2599 23.5361 22.2345 23.4807L22.3147 23.4778C24.3243 23.4209 25.9459 23.3757 27.2234 23.1643C28.5549 22.9441 29.6603 22.5226 30.5441 21.6141C31.4307 20.7026 31.8186 19.5753 31.9995 18.2264C32.1745 16.9284 32.1745 15.2834 32.1745 13.2389V11.0164C32.1745 8.97323 32.1745 7.32823 31.9995 6.03031C31.8186 4.68135 31.4307 3.55406 30.5441 2.6426C29.6603 1.7326 28.5549 1.3126 27.2234 1.0924C25.9459 0.880937 24.3243 0.835729 22.3132 0.778854L22.2345 0.775937C20.3226 0.717909 18.4101 0.685822 16.4974 0.679688ZM14.8524 15.9936C14.6861 16.0886 14.4977 16.1383 14.3062 16.1377C14.1147 16.137 13.9267 16.0861 13.761 15.99C13.5953 15.8938 13.4578 15.7559 13.3622 15.5899C13.2666 15.424 13.2162 15.2358 13.2161 15.0443V9.21094C13.2162 9.0194 13.2666 8.83124 13.3622 8.66528C13.4578 8.49932 13.5953 8.36137 13.761 8.26525C13.9267 8.16913 14.1147 8.11819 14.3062 8.11755C14.4977 8.1169 14.6861 8.16656 14.8524 8.26156L19.9566 11.1782C20.1238 11.2739 20.2629 11.4121 20.3596 11.5789C20.4563 11.7456 20.5072 11.9349 20.5072 12.1276C20.5072 12.3203 20.4563 12.5096 20.3596 12.6764C20.2629 12.8431 20.1238 12.9813 19.9566 13.077L14.8524 15.9936Z" fill="url(#paint0_linear_928_3100)"/>
<defs>
<linearGradient id="paint0_linear_928_3100" x1="16.4974" y1="0.679687" x2="16.4974" y2="23.577" gradientUnits="userSpaceOnUse">
<stop stop-color="#D32912"/>
<stop offset="1" stop-color="#A00408"/>
</linearGradient>
</defs>
</svg>
