<svg width="90" height="73" viewBox="0 0 90 73" fill="none" xmlns="http://www.w3.org/2000/svg">
<path d="M46.1009 0.5C48.504 0.513501 54.5164 0.572004 60.9068 0.82852L63.1749 0.927526C69.6058 1.22904 76.0322 1.75108 79.2229 2.63763C83.4757 3.83471 86.8149 7.31793 87.9445 11.7372C89.7446 18.7576 89.9696 32.4475 89.9966 35.7642L90.0011 36.4482V37.2313C89.9696 40.548 89.7446 54.2424 87.9445 61.2583C86.8014 65.6911 83.4577 69.1788 79.2229 70.3579C76.0322 71.2444 69.6058 71.7665 63.1749 72.068L60.9068 72.1715C54.5164 72.4235 48.504 72.4865 46.1009 72.4955L45.0433 72.5H43.8957C38.8104 72.4685 17.5421 72.239 10.7737 70.3579C6.52541 69.1608 3.1817 65.6776 2.05213 61.2583C0.252016 54.2379 0.0270017 40.548 0 37.2313V35.7642C0.0270017 32.4475 0.252016 18.7531 2.05213 11.7372C3.1952 7.30443 6.53891 3.81671 10.7782 2.64213C17.5421 0.756515 38.8149 0.527002 43.9002 0.5H46.1009ZM35.9977 20.7513V52.2532L62.9994 36.5023L35.9977 20.7513Z" fill="white"/>
</svg>
